<?xml version="1.0" encoding="utf-8" standalone="no"?>
<!DOCTYPE svg PUBLIC "-//W3C//DTD SVG 1.1//EN"
  "http://www.w3.org/Graphics/SVG/1.1/DTD/svg11.dtd">
<svg xmlns:xlink="http://www.w3.org/1999/xlink" width="1080pt" height="432pt" viewBox="0 0 1080 432" xmlns="http://www.w3.org/2000/svg" version="1.1">
 <metadata>
  <rdf:RDF xmlns:dc="http://purl.org/dc/elements/1.1/" xmlns:cc="http://creativecommons.org/ns#" xmlns:rdf="http://www.w3.org/1999/02/22-rdf-syntax-ns#">
   <cc:Work>
    <dc:type rdf:resource="http://purl.org/dc/dcmitype/StillImage"/>
    <dc:date>2023-11-28T01:07:10.391220</dc:date>
    <dc:format>image/svg+xml</dc:format>
    <dc:creator>
     <cc:Agent>
      <dc:title>Matplotlib v3.8.2, https://matplotlib.org/</dc:title>
     </cc:Agent>
    </dc:creator>
   </cc:Work>
  </rdf:RDF>
 </metadata>
 <defs>
  <style type="text/css">*{stroke-linejoin: round; stroke-linecap: butt}</style>
 </defs>
 <g id="figure_1">
  <g id="patch_1">
   <path d="M 0 432 
L 1080 432 
L 1080 0 
L 0 0 
z
" style="fill: #ffffff"/>
  </g>
  <g id="axes_1">
   <g id="patch_2">
    <path d="M 135 384.48 
L 972 384.48 
L 972 51.84 
L 135 51.84 
z
" style="fill: #ffffff"/>
   </g>
   <g id="matplotlib.axis_1">
    <g id="xtick_1">
     <g id="line2d_1">
      <path d="M 173.045455 384.48 
L 173.045455 51.84 
" clip-path="url(#p1ffb1c78e2)" style="fill: none; stroke: #cccccc; stroke-width: 0.8; stroke-linecap: round"/>
     </g>
     <g id="text_1">
      <!-- 2023-10 -->
      <g style="fill: #262626" transform="translate(154.697798 398.637812) scale(0.1 -0.1)">
       <defs>
        <path id="ArialMT-32" d="M 3222 541 
L 3222 0 
L 194 0 
Q 188 203 259 391 
Q 375 700 629 1000 
Q 884 1300 1366 1694 
Q 2113 2306 2375 2664 
Q 2638 3022 2638 3341 
Q 2638 3675 2398 3904 
Q 2159 4134 1775 4134 
Q 1369 4134 1125 3890 
Q 881 3647 878 3216 
L 300 3275 
Q 359 3922 746 4261 
Q 1134 4600 1788 4600 
Q 2447 4600 2831 4234 
Q 3216 3869 3216 3328 
Q 3216 3053 3103 2787 
Q 2991 2522 2730 2228 
Q 2469 1934 1863 1422 
Q 1356 997 1212 845 
Q 1069 694 975 541 
L 3222 541 
z
" transform="scale(0.015625)"/>
        <path id="ArialMT-30" d="M 266 2259 
Q 266 3072 433 3567 
Q 600 4063 929 4331 
Q 1259 4600 1759 4600 
Q 2128 4600 2406 4451 
Q 2684 4303 2865 4023 
Q 3047 3744 3150 3342 
Q 3253 2941 3253 2259 
Q 3253 1453 3087 958 
Q 2922 463 2592 192 
Q 2263 -78 1759 -78 
Q 1097 -78 719 397 
Q 266 969 266 2259 
z
M 844 2259 
Q 844 1131 1108 757 
Q 1372 384 1759 384 
Q 2147 384 2411 759 
Q 2675 1134 2675 2259 
Q 2675 3391 2411 3762 
Q 2147 4134 1753 4134 
Q 1366 4134 1134 3806 
Q 844 3388 844 2259 
z
" transform="scale(0.015625)"/>
        <path id="ArialMT-33" d="M 269 1209 
L 831 1284 
Q 928 806 1161 595 
Q 1394 384 1728 384 
Q 2125 384 2398 659 
Q 2672 934 2672 1341 
Q 2672 1728 2419 1979 
Q 2166 2231 1775 2231 
Q 1616 2231 1378 2169 
L 1441 2663 
Q 1497 2656 1531 2656 
Q 1891 2656 2178 2843 
Q 2466 3031 2466 3422 
Q 2466 3731 2256 3934 
Q 2047 4138 1716 4138 
Q 1388 4138 1169 3931 
Q 950 3725 888 3313 
L 325 3413 
Q 428 3978 793 4289 
Q 1159 4600 1703 4600 
Q 2078 4600 2393 4439 
Q 2709 4278 2876 4000 
Q 3044 3722 3044 3409 
Q 3044 3113 2884 2869 
Q 2725 2625 2413 2481 
Q 2819 2388 3044 2092 
Q 3269 1797 3269 1353 
Q 3269 753 2831 336 
Q 2394 -81 1725 -81 
Q 1122 -81 723 278 
Q 325 638 269 1209 
z
" transform="scale(0.015625)"/>
        <path id="ArialMT-2d" d="M 203 1375 
L 203 1941 
L 1931 1941 
L 1931 1375 
L 203 1375 
z
" transform="scale(0.015625)"/>
        <path id="ArialMT-31" d="M 2384 0 
L 1822 0 
L 1822 3584 
Q 1619 3391 1289 3197 
Q 959 3003 697 2906 
L 697 3450 
Q 1169 3672 1522 3987 
Q 1875 4303 2022 4600 
L 2384 4600 
L 2384 0 
z
" transform="scale(0.015625)"/>
       </defs>
       <use xlink:href="#ArialMT-32"/>
       <use xlink:href="#ArialMT-30" x="55.615234"/>
       <use xlink:href="#ArialMT-32" x="111.230469"/>
       <use xlink:href="#ArialMT-33" x="166.845703"/>
       <use xlink:href="#ArialMT-2d" x="222.460938"/>
       <use xlink:href="#ArialMT-31" x="255.761719"/>
       <use xlink:href="#ArialMT-30" x="311.376953"/>
      </g>
     </g>
    </g>
    <g id="xtick_2">
     <g id="line2d_2">
      <path d="M 250.638158 384.48 
L 250.638158 51.84 
" clip-path="url(#p1ffb1c78e2)" style="fill: none; stroke: #cccccc; stroke-width: 0.8; stroke-linecap: round"/>
     </g>
     <g id="text_2">
      <!-- 2023-11 -->
      <g style="fill: #262626" transform="translate(232.659252 398.637812) scale(0.1 -0.1)">
       <use xlink:href="#ArialMT-32"/>
       <use xlink:href="#ArialMT-30" x="55.615234"/>
       <use xlink:href="#ArialMT-32" x="111.230469"/>
       <use xlink:href="#ArialMT-33" x="166.845703"/>
       <use xlink:href="#ArialMT-2d" x="222.460938"/>
       <use xlink:href="#ArialMT-31" x="255.761719"/>
       <use xlink:href="#ArialMT-31" x="304.001953"/>
      </g>
     </g>
    </g>
    <g id="xtick_3">
     <g id="line2d_3">
      <path d="M 325.727871 384.48 
L 325.727871 51.84 
" clip-path="url(#p1ffb1c78e2)" style="fill: none; stroke: #cccccc; stroke-width: 0.8; stroke-linecap: round"/>
     </g>
     <g id="text_3">
      <!-- 2023-12 -->
      <g style="fill: #262626" transform="translate(307.380215 398.637812) scale(0.1 -0.1)">
       <use xlink:href="#ArialMT-32"/>
       <use xlink:href="#ArialMT-30" x="55.615234"/>
       <use xlink:href="#ArialMT-32" x="111.230469"/>
       <use xlink:href="#ArialMT-33" x="166.845703"/>
       <use xlink:href="#ArialMT-2d" x="222.460938"/>
       <use xlink:href="#ArialMT-31" x="255.761719"/>
       <use xlink:href="#ArialMT-32" x="311.376953"/>
      </g>
     </g>
    </g>
    <g id="xtick_4">
     <g id="line2d_4">
      <path d="M 403.320574 384.48 
L 403.320574 51.84 
" clip-path="url(#p1ffb1c78e2)" style="fill: none; stroke: #cccccc; stroke-width: 0.8; stroke-linecap: round"/>
     </g>
     <g id="text_4">
      <!-- 2024-01 -->
      <g style="fill: #262626" transform="translate(384.972918 398.637812) scale(0.1 -0.1)">
       <defs>
        <path id="ArialMT-34" d="M 2069 0 
L 2069 1097 
L 81 1097 
L 81 1613 
L 2172 4581 
L 2631 4581 
L 2631 1613 
L 3250 1613 
L 3250 1097 
L 2631 1097 
L 2631 0 
L 2069 0 
z
M 2069 1613 
L 2069 3678 
L 634 1613 
L 2069 1613 
z
" transform="scale(0.015625)"/>
       </defs>
       <use xlink:href="#ArialMT-32"/>
       <use xlink:href="#ArialMT-30" x="55.615234"/>
       <use xlink:href="#ArialMT-32" x="111.230469"/>
       <use xlink:href="#ArialMT-34" x="166.845703"/>
       <use xlink:href="#ArialMT-2d" x="222.460938"/>
       <use xlink:href="#ArialMT-30" x="255.761719"/>
       <use xlink:href="#ArialMT-31" x="311.376953"/>
      </g>
     </g>
    </g>
    <g id="xtick_5">
     <g id="line2d_5">
      <path d="M 480.913278 384.48 
L 480.913278 51.84 
" clip-path="url(#p1ffb1c78e2)" style="fill: none; stroke: #cccccc; stroke-width: 0.8; stroke-linecap: round"/>
     </g>
     <g id="text_5">
      <!-- 2024-02 -->
      <g style="fill: #262626" transform="translate(462.565621 398.637812) scale(0.1 -0.1)">
       <use xlink:href="#ArialMT-32"/>
       <use xlink:href="#ArialMT-30" x="55.615234"/>
       <use xlink:href="#ArialMT-32" x="111.230469"/>
       <use xlink:href="#ArialMT-34" x="166.845703"/>
       <use xlink:href="#ArialMT-2d" x="222.460938"/>
       <use xlink:href="#ArialMT-30" x="255.761719"/>
       <use xlink:href="#ArialMT-32" x="311.376953"/>
      </g>
     </g>
    </g>
    <g id="xtick_6">
     <g id="line2d_6">
      <path d="M 553.5 384.48 
L 553.5 51.84 
" clip-path="url(#p1ffb1c78e2)" style="fill: none; stroke: #cccccc; stroke-width: 0.8; stroke-linecap: round"/>
     </g>
     <g id="text_6">
      <!-- 2024-03 -->
      <g style="fill: #262626" transform="translate(535.152344 398.637812) scale(0.1 -0.1)">
       <use xlink:href="#ArialMT-32"/>
       <use xlink:href="#ArialMT-30" x="55.615234"/>
       <use xlink:href="#ArialMT-32" x="111.230469"/>
       <use xlink:href="#ArialMT-34" x="166.845703"/>
       <use xlink:href="#ArialMT-2d" x="222.460938"/>
       <use xlink:href="#ArialMT-30" x="255.761719"/>
       <use xlink:href="#ArialMT-33" x="311.376953"/>
      </g>
     </g>
    </g>
    <g id="xtick_7">
     <g id="line2d_7">
      <path d="M 631.092703 384.48 
L 631.092703 51.84 
" clip-path="url(#p1ffb1c78e2)" style="fill: none; stroke: #cccccc; stroke-width: 0.8; stroke-linecap: round"/>
     </g>
     <g id="text_7">
      <!-- 2024-04 -->
      <g style="fill: #262626" transform="translate(612.745047 398.637812) scale(0.1 -0.1)">
       <use xlink:href="#ArialMT-32"/>
       <use xlink:href="#ArialMT-30" x="55.615234"/>
       <use xlink:href="#ArialMT-32" x="111.230469"/>
       <use xlink:href="#ArialMT-34" x="166.845703"/>
       <use xlink:href="#ArialMT-2d" x="222.460938"/>
       <use xlink:href="#ArialMT-30" x="255.761719"/>
       <use xlink:href="#ArialMT-34" x="311.376953"/>
      </g>
     </g>
    </g>
    <g id="xtick_8">
     <g id="line2d_8">
      <path d="M 706.182416 384.48 
L 706.182416 51.84 
" clip-path="url(#p1ffb1c78e2)" style="fill: none; stroke: #cccccc; stroke-width: 0.8; stroke-linecap: round"/>
     </g>
     <g id="text_8">
      <!-- 2024-05 -->
      <g style="fill: #262626" transform="translate(687.83476 398.637812) scale(0.1 -0.1)">
       <defs>
        <path id="ArialMT-35" d="M 266 1200 
L 856 1250 
Q 922 819 1161 601 
Q 1400 384 1738 384 
Q 2144 384 2425 690 
Q 2706 997 2706 1503 
Q 2706 1984 2436 2262 
Q 2166 2541 1728 2541 
Q 1456 2541 1237 2417 
Q 1019 2294 894 2097 
L 366 2166 
L 809 4519 
L 3088 4519 
L 3088 3981 
L 1259 3981 
L 1013 2750 
Q 1425 3038 1878 3038 
Q 2478 3038 2890 2622 
Q 3303 2206 3303 1553 
Q 3303 931 2941 478 
Q 2500 -78 1738 -78 
Q 1113 -78 717 272 
Q 322 622 266 1200 
z
" transform="scale(0.015625)"/>
       </defs>
       <use xlink:href="#ArialMT-32"/>
       <use xlink:href="#ArialMT-30" x="55.615234"/>
       <use xlink:href="#ArialMT-32" x="111.230469"/>
       <use xlink:href="#ArialMT-34" x="166.845703"/>
       <use xlink:href="#ArialMT-2d" x="222.460938"/>
       <use xlink:href="#ArialMT-30" x="255.761719"/>
       <use xlink:href="#ArialMT-35" x="311.376953"/>
      </g>
     </g>
    </g>
    <g id="xtick_9">
     <g id="line2d_9">
      <path d="M 783.77512 384.48 
L 783.77512 51.84 
" clip-path="url(#p1ffb1c78e2)" style="fill: none; stroke: #cccccc; stroke-width: 0.8; stroke-linecap: round"/>
     </g>
     <g id="text_9">
      <!-- 2024-06 -->
      <g style="fill: #262626" transform="translate(765.427463 398.637812) scale(0.1 -0.1)">
       <defs>
        <path id="ArialMT-36" d="M 3184 3459 
L 2625 3416 
Q 2550 3747 2413 3897 
Q 2184 4138 1850 4138 
Q 1581 4138 1378 3988 
Q 1113 3794 959 3422 
Q 806 3050 800 2363 
Q 1003 2672 1297 2822 
Q 1591 2972 1913 2972 
Q 2475 2972 2870 2558 
Q 3266 2144 3266 1488 
Q 3266 1056 3080 686 
Q 2894 316 2569 119 
Q 2244 -78 1831 -78 
Q 1128 -78 684 439 
Q 241 956 241 2144 
Q 241 3472 731 4075 
Q 1159 4600 1884 4600 
Q 2425 4600 2770 4297 
Q 3116 3994 3184 3459 
z
M 888 1484 
Q 888 1194 1011 928 
Q 1134 663 1356 523 
Q 1578 384 1822 384 
Q 2178 384 2434 671 
Q 2691 959 2691 1453 
Q 2691 1928 2437 2201 
Q 2184 2475 1800 2475 
Q 1419 2475 1153 2201 
Q 888 1928 888 1484 
z
" transform="scale(0.015625)"/>
       </defs>
       <use xlink:href="#ArialMT-32"/>
       <use xlink:href="#ArialMT-30" x="55.615234"/>
       <use xlink:href="#ArialMT-32" x="111.230469"/>
       <use xlink:href="#ArialMT-34" x="166.845703"/>
       <use xlink:href="#ArialMT-2d" x="222.460938"/>
       <use xlink:href="#ArialMT-30" x="255.761719"/>
       <use xlink:href="#ArialMT-36" x="311.376953"/>
      </g>
     </g>
    </g>
    <g id="xtick_10">
     <g id="line2d_10">
      <path d="M 858.864833 384.48 
L 858.864833 51.84 
" clip-path="url(#p1ffb1c78e2)" style="fill: none; stroke: #cccccc; stroke-width: 0.8; stroke-linecap: round"/>
     </g>
     <g id="text_10">
      <!-- 2024-07 -->
      <g style="fill: #262626" transform="translate(840.517176 398.637812) scale(0.1 -0.1)">
       <defs>
        <path id="ArialMT-37" d="M 303 3981 
L 303 4522 
L 3269 4522 
L 3269 4084 
Q 2831 3619 2401 2847 
Q 1972 2075 1738 1259 
Q 1569 684 1522 0 
L 944 0 
Q 953 541 1156 1306 
Q 1359 2072 1739 2783 
Q 2119 3494 2547 3981 
L 303 3981 
z
" transform="scale(0.015625)"/>
       </defs>
       <use xlink:href="#ArialMT-32"/>
       <use xlink:href="#ArialMT-30" x="55.615234"/>
       <use xlink:href="#ArialMT-32" x="111.230469"/>
       <use xlink:href="#ArialMT-34" x="166.845703"/>
       <use xlink:href="#ArialMT-2d" x="222.460938"/>
       <use xlink:href="#ArialMT-30" x="255.761719"/>
       <use xlink:href="#ArialMT-37" x="311.376953"/>
      </g>
     </g>
    </g>
    <g id="xtick_11">
     <g id="line2d_11">
      <path d="M 936.457536 384.48 
L 936.457536 51.84 
" clip-path="url(#p1ffb1c78e2)" style="fill: none; stroke: #cccccc; stroke-width: 0.8; stroke-linecap: round"/>
     </g>
     <g id="text_11">
      <!-- 2024-08 -->
      <g style="fill: #262626" transform="translate(918.10988 398.637812) scale(0.1 -0.1)">
       <defs>
        <path id="ArialMT-38" d="M 1131 2484 
Q 781 2613 612 2850 
Q 444 3088 444 3419 
Q 444 3919 803 4259 
Q 1163 4600 1759 4600 
Q 2359 4600 2725 4251 
Q 3091 3903 3091 3403 
Q 3091 3084 2923 2848 
Q 2756 2613 2416 2484 
Q 2838 2347 3058 2040 
Q 3278 1734 3278 1309 
Q 3278 722 2862 322 
Q 2447 -78 1769 -78 
Q 1091 -78 675 323 
Q 259 725 259 1325 
Q 259 1772 486 2073 
Q 713 2375 1131 2484 
z
M 1019 3438 
Q 1019 3113 1228 2906 
Q 1438 2700 1772 2700 
Q 2097 2700 2305 2904 
Q 2513 3109 2513 3406 
Q 2513 3716 2298 3927 
Q 2084 4138 1766 4138 
Q 1444 4138 1231 3931 
Q 1019 3725 1019 3438 
z
M 838 1322 
Q 838 1081 952 856 
Q 1066 631 1291 507 
Q 1516 384 1775 384 
Q 2178 384 2440 643 
Q 2703 903 2703 1303 
Q 2703 1709 2433 1975 
Q 2163 2241 1756 2241 
Q 1359 2241 1098 1978 
Q 838 1716 838 1322 
z
" transform="scale(0.015625)"/>
       </defs>
       <use xlink:href="#ArialMT-32"/>
       <use xlink:href="#ArialMT-30" x="55.615234"/>
       <use xlink:href="#ArialMT-32" x="111.230469"/>
       <use xlink:href="#ArialMT-34" x="166.845703"/>
       <use xlink:href="#ArialMT-2d" x="222.460938"/>
       <use xlink:href="#ArialMT-30" x="255.761719"/>
       <use xlink:href="#ArialMT-38" x="311.376953"/>
      </g>
     </g>
    </g>
    <g id="text_12">
     <!-- Date -->
     <g style="fill: #262626" transform="translate(538.714687 414.64625) scale(0.14 -0.14)">
      <defs>
       <path id="ArialMT-44" d="M 494 0 
L 494 4581 
L 2072 4581 
Q 2606 4581 2888 4516 
Q 3281 4425 3559 4188 
Q 3922 3881 4101 3404 
Q 4281 2928 4281 2316 
Q 4281 1794 4159 1391 
Q 4038 988 3847 723 
Q 3656 459 3429 307 
Q 3203 156 2883 78 
Q 2563 0 2147 0 
L 494 0 
z
M 1100 541 
L 2078 541 
Q 2531 541 2789 625 
Q 3047 709 3200 863 
Q 3416 1078 3536 1442 
Q 3656 1806 3656 2325 
Q 3656 3044 3420 3430 
Q 3184 3816 2847 3947 
Q 2603 4041 2063 4041 
L 1100 4041 
L 1100 541 
z
" transform="scale(0.015625)"/>
       <path id="ArialMT-61" d="M 2588 409 
Q 2275 144 1986 34 
Q 1697 -75 1366 -75 
Q 819 -75 525 192 
Q 231 459 231 875 
Q 231 1119 342 1320 
Q 453 1522 633 1644 
Q 813 1766 1038 1828 
Q 1203 1872 1538 1913 
Q 2219 1994 2541 2106 
Q 2544 2222 2544 2253 
Q 2544 2597 2384 2738 
Q 2169 2928 1744 2928 
Q 1347 2928 1158 2789 
Q 969 2650 878 2297 
L 328 2372 
Q 403 2725 575 2942 
Q 747 3159 1072 3276 
Q 1397 3394 1825 3394 
Q 2250 3394 2515 3294 
Q 2781 3194 2906 3042 
Q 3031 2891 3081 2659 
Q 3109 2516 3109 2141 
L 3109 1391 
Q 3109 606 3145 398 
Q 3181 191 3288 0 
L 2700 0 
Q 2613 175 2588 409 
z
M 2541 1666 
Q 2234 1541 1622 1453 
Q 1275 1403 1131 1340 
Q 988 1278 909 1158 
Q 831 1038 831 891 
Q 831 666 1001 516 
Q 1172 366 1500 366 
Q 1825 366 2078 508 
Q 2331 650 2450 897 
Q 2541 1088 2541 1459 
L 2541 1666 
z
" transform="scale(0.015625)"/>
       <path id="ArialMT-74" d="M 1650 503 
L 1731 6 
Q 1494 -44 1306 -44 
Q 1000 -44 831 53 
Q 663 150 594 308 
Q 525 466 525 972 
L 525 2881 
L 113 2881 
L 113 3319 
L 525 3319 
L 525 4141 
L 1084 4478 
L 1084 3319 
L 1650 3319 
L 1650 2881 
L 1084 2881 
L 1084 941 
Q 1084 700 1114 631 
Q 1144 563 1211 522 
Q 1278 481 1403 481 
Q 1497 481 1650 503 
z
" transform="scale(0.015625)"/>
       <path id="ArialMT-65" d="M 2694 1069 
L 3275 997 
Q 3138 488 2766 206 
Q 2394 -75 1816 -75 
Q 1088 -75 661 373 
Q 234 822 234 1631 
Q 234 2469 665 2931 
Q 1097 3394 1784 3394 
Q 2450 3394 2872 2941 
Q 3294 2488 3294 1666 
Q 3294 1616 3291 1516 
L 816 1516 
Q 847 969 1125 678 
Q 1403 388 1819 388 
Q 2128 388 2347 550 
Q 2566 713 2694 1069 
z
M 847 1978 
L 2700 1978 
Q 2663 2397 2488 2606 
Q 2219 2931 1791 2931 
Q 1403 2931 1139 2672 
Q 875 2413 847 1978 
z
" transform="scale(0.015625)"/>
      </defs>
      <use xlink:href="#ArialMT-44"/>
      <use xlink:href="#ArialMT-61" x="72.216797"/>
      <use xlink:href="#ArialMT-74" x="127.832031"/>
      <use xlink:href="#ArialMT-65" x="155.615234"/>
     </g>
    </g>
   </g>
   <g id="matplotlib.axis_2">
    <g id="ytick_1">
     <g id="line2d_12">
      <path d="M 135 370.68662 
L 972 370.68662 
" clip-path="url(#p1ffb1c78e2)" style="fill: none; stroke: #cccccc; stroke-width: 0.8; stroke-linecap: round"/>
     </g>
     <g id="text_13">
      <!-- 0 -->
      <g style="fill: #262626" transform="translate(122.439063 374.265526) scale(0.1 -0.1)">
       <use xlink:href="#ArialMT-30"/>
      </g>
     </g>
    </g>
    <g id="ytick_2">
     <g id="line2d_13">
      <path d="M 135 329.867539 
L 972 329.867539 
" clip-path="url(#p1ffb1c78e2)" style="fill: none; stroke: #cccccc; stroke-width: 0.8; stroke-linecap: round"/>
     </g>
     <g id="text_14">
      <!-- 500 -->
      <g style="fill: #262626" transform="translate(111.317188 333.446445) scale(0.1 -0.1)">
       <use xlink:href="#ArialMT-35"/>
       <use xlink:href="#ArialMT-30" x="55.615234"/>
       <use xlink:href="#ArialMT-30" x="111.230469"/>
      </g>
     </g>
    </g>
    <g id="ytick_3">
     <g id="line2d_14">
      <path d="M 135 289.048458 
L 972 289.048458 
" clip-path="url(#p1ffb1c78e2)" style="fill: none; stroke: #cccccc; stroke-width: 0.8; stroke-linecap: round"/>
     </g>
     <g id="text_15">
      <!-- 1000 -->
      <g style="fill: #262626" transform="translate(105.75625 292.627364) scale(0.1 -0.1)">
       <use xlink:href="#ArialMT-31"/>
       <use xlink:href="#ArialMT-30" x="55.615234"/>
       <use xlink:href="#ArialMT-30" x="111.230469"/>
       <use xlink:href="#ArialMT-30" x="166.845703"/>
      </g>
     </g>
    </g>
    <g id="ytick_4">
     <g id="line2d_15">
      <path d="M 135 248.229376 
L 972 248.229376 
" clip-path="url(#p1ffb1c78e2)" style="fill: none; stroke: #cccccc; stroke-width: 0.8; stroke-linecap: round"/>
     </g>
     <g id="text_16">
      <!-- 1500 -->
      <g style="fill: #262626" transform="translate(105.75625 251.808282) scale(0.1 -0.1)">
       <use xlink:href="#ArialMT-31"/>
       <use xlink:href="#ArialMT-35" x="55.615234"/>
       <use xlink:href="#ArialMT-30" x="111.230469"/>
       <use xlink:href="#ArialMT-30" x="166.845703"/>
      </g>
     </g>
    </g>
    <g id="ytick_5">
     <g id="line2d_16">
      <path d="M 135 207.410295 
L 972 207.410295 
" clip-path="url(#p1ffb1c78e2)" style="fill: none; stroke: #cccccc; stroke-width: 0.8; stroke-linecap: round"/>
     </g>
     <g id="text_17">
      <!-- 2000 -->
      <g style="fill: #262626" transform="translate(105.75625 210.989201) scale(0.1 -0.1)">
       <use xlink:href="#ArialMT-32"/>
       <use xlink:href="#ArialMT-30" x="55.615234"/>
       <use xlink:href="#ArialMT-30" x="111.230469"/>
       <use xlink:href="#ArialMT-30" x="166.845703"/>
      </g>
     </g>
    </g>
    <g id="ytick_6">
     <g id="line2d_17">
      <path d="M 135 166.591214 
L 972 166.591214 
" clip-path="url(#p1ffb1c78e2)" style="fill: none; stroke: #cccccc; stroke-width: 0.8; stroke-linecap: round"/>
     </g>
     <g id="text_18">
      <!-- 2500 -->
      <g style="fill: #262626" transform="translate(105.75625 170.17012) scale(0.1 -0.1)">
       <use xlink:href="#ArialMT-32"/>
       <use xlink:href="#ArialMT-35" x="55.615234"/>
       <use xlink:href="#ArialMT-30" x="111.230469"/>
       <use xlink:href="#ArialMT-30" x="166.845703"/>
      </g>
     </g>
    </g>
    <g id="ytick_7">
     <g id="line2d_18">
      <path d="M 135 125.772132 
L 972 125.772132 
" clip-path="url(#p1ffb1c78e2)" style="fill: none; stroke: #cccccc; stroke-width: 0.8; stroke-linecap: round"/>
     </g>
     <g id="text_19">
      <!-- 3000 -->
      <g style="fill: #262626" transform="translate(105.75625 129.351039) scale(0.1 -0.1)">
       <use xlink:href="#ArialMT-33"/>
       <use xlink:href="#ArialMT-30" x="55.615234"/>
       <use xlink:href="#ArialMT-30" x="111.230469"/>
       <use xlink:href="#ArialMT-30" x="166.845703"/>
      </g>
     </g>
    </g>
    <g id="ytick_8">
     <g id="line2d_19">
      <path d="M 135 84.953051 
L 972 84.953051 
" clip-path="url(#p1ffb1c78e2)" style="fill: none; stroke: #cccccc; stroke-width: 0.8; stroke-linecap: round"/>
     </g>
     <g id="text_20">
      <!-- 3500 -->
      <g style="fill: #262626" transform="translate(105.75625 88.531957) scale(0.1 -0.1)">
       <use xlink:href="#ArialMT-33"/>
       <use xlink:href="#ArialMT-35" x="55.615234"/>
       <use xlink:href="#ArialMT-30" x="111.230469"/>
       <use xlink:href="#ArialMT-30" x="166.845703"/>
      </g>
     </g>
    </g>
    <g id="text_21">
     <!-- Amount -->
     <g style="fill: #262626" transform="translate(98.97375 242.282656) rotate(-90) scale(0.14 -0.14)">
      <defs>
       <path id="ArialMT-41" d="M -9 0 
L 1750 4581 
L 2403 4581 
L 4278 0 
L 3588 0 
L 3053 1388 
L 1138 1388 
L 634 0 
L -9 0 
z
M 1313 1881 
L 2866 1881 
L 2388 3150 
Q 2169 3728 2063 4100 
Q 1975 3659 1816 3225 
L 1313 1881 
z
" transform="scale(0.015625)"/>
       <path id="ArialMT-6d" d="M 422 0 
L 422 3319 
L 925 3319 
L 925 2853 
Q 1081 3097 1340 3245 
Q 1600 3394 1931 3394 
Q 2300 3394 2536 3241 
Q 2772 3088 2869 2813 
Q 3263 3394 3894 3394 
Q 4388 3394 4653 3120 
Q 4919 2847 4919 2278 
L 4919 0 
L 4359 0 
L 4359 2091 
Q 4359 2428 4304 2576 
Q 4250 2725 4106 2815 
Q 3963 2906 3769 2906 
Q 3419 2906 3187 2673 
Q 2956 2441 2956 1928 
L 2956 0 
L 2394 0 
L 2394 2156 
Q 2394 2531 2256 2718 
Q 2119 2906 1806 2906 
Q 1569 2906 1367 2781 
Q 1166 2656 1075 2415 
Q 984 2175 984 1722 
L 984 0 
L 422 0 
z
" transform="scale(0.015625)"/>
       <path id="ArialMT-6f" d="M 213 1659 
Q 213 2581 725 3025 
Q 1153 3394 1769 3394 
Q 2453 3394 2887 2945 
Q 3322 2497 3322 1706 
Q 3322 1066 3130 698 
Q 2938 331 2570 128 
Q 2203 -75 1769 -75 
Q 1072 -75 642 372 
Q 213 819 213 1659 
z
M 791 1659 
Q 791 1022 1069 705 
Q 1347 388 1769 388 
Q 2188 388 2466 706 
Q 2744 1025 2744 1678 
Q 2744 2294 2464 2611 
Q 2184 2928 1769 2928 
Q 1347 2928 1069 2612 
Q 791 2297 791 1659 
z
" transform="scale(0.015625)"/>
       <path id="ArialMT-75" d="M 2597 0 
L 2597 488 
Q 2209 -75 1544 -75 
Q 1250 -75 995 37 
Q 741 150 617 320 
Q 494 491 444 738 
Q 409 903 409 1263 
L 409 3319 
L 972 3319 
L 972 1478 
Q 972 1038 1006 884 
Q 1059 663 1231 536 
Q 1403 409 1656 409 
Q 1909 409 2131 539 
Q 2353 669 2445 892 
Q 2538 1116 2538 1541 
L 2538 3319 
L 3100 3319 
L 3100 0 
L 2597 0 
z
" transform="scale(0.015625)"/>
       <path id="ArialMT-6e" d="M 422 0 
L 422 3319 
L 928 3319 
L 928 2847 
Q 1294 3394 1984 3394 
Q 2284 3394 2536 3286 
Q 2788 3178 2913 3003 
Q 3038 2828 3088 2588 
Q 3119 2431 3119 2041 
L 3119 0 
L 2556 0 
L 2556 2019 
Q 2556 2363 2490 2533 
Q 2425 2703 2258 2804 
Q 2091 2906 1866 2906 
Q 1506 2906 1245 2678 
Q 984 2450 984 1813 
L 984 0 
L 422 0 
z
" transform="scale(0.015625)"/>
      </defs>
      <use xlink:href="#ArialMT-41"/>
      <use xlink:href="#ArialMT-6d" x="66.699219"/>
      <use xlink:href="#ArialMT-6f" x="150"/>
      <use xlink:href="#ArialMT-75" x="205.615234"/>
      <use xlink:href="#ArialMT-6e" x="261.230469"/>
      <use xlink:href="#ArialMT-74" x="316.845703"/>
     </g>
    </g>
   </g>
   <g id="PolyCollection_1"/>
   <g id="PolyCollection_2"/>
   <g id="line2d_20">
    <path d="M 173.045455 254.862477 
L 175.548445 341.219325 
L 178.051435 241.469736 
L 180.554426 329.667525 
L 183.057416 321.144501 
L 185.560407 266.165281 
L 188.063397 313.592971 
L 190.566388 318.63821 
L 193.069378 279.574349 
L 195.572368 327.202053 
L 198.075359 336.259807 
L 200.578349 282.047985 
L 203.08134 275.859812 
L 205.58433 316.262539 
L 208.087321 300.077773 
L 210.590311 328.304168 
L 213.093301 319.083138 
L 215.596292 271.651365 
L 218.099282 348.885149 
L 220.602273 302.033007 
L 223.105263 299.51447 
L 225.608254 327.810257 
L 228.111244 325.35703 
L 230.614234 356.595873 
L 233.117225 346.484987 
L 235.620215 323.165046 
L 238.123206 360.726764 
L 240.626196 244.110731 
L 243.129187 223.007266 
L 245.632177 323.540581 
L 248.135167 310.854011 
L 250.638158 120.624846 
L 253.141148 317.380982 
L 255.644139 163.166493 
L 258.147129 275.802666 
L 260.65012 319.854618 
L 263.15311 320.258727 
L 265.6561 300.41249 
L 268.159091 344.129726 
L 270.662081 334.308655 
L 273.165072 346.027813 
L 275.668062 334.292327 
L 278.171053 311.862242 
L 280.674043 358.653155 
L 283.177033 306.955789 
L 285.680024 294.522296 
L 288.183014 302.624884 
L 290.686005 301.298264 
L 293.188995 313.682773 
L 295.691986 290.652647 
L 298.194976 290.824088 
L 300.697967 301.453376 
L 303.200957 305.8251 
L 305.703947 255.882954 
L 308.206938 355.224352 
L 310.709928 342.701058 
L 313.212919 360.54716 
L 315.715909 363.147336 
L 318.2189 343.121495 
L 320.72189 344.950189 
L 323.22488 282.472504 
L 325.727871 207.777667 
L 328.230861 284.084857 
L 330.733852 130.058136 
L 333.236842 314.686923 
L 335.739833 337.112926 
L 338.242823 349.199456 
L 340.745813 351.966989 
L 343.248804 353.142579 
L 345.751794 177.432762 
L 348.254785 318.160626 
L 350.757775 339.002849 
L 353.260766 312.380644 
L 355.763756 298.440928 
L 358.266746 300.739042 
L 360.769737 362.277889 
L 363.272727 341.574451 
L 365.775718 347.387089 
L 368.278708 308.625289 
L 370.781699 162.954233 
L 373.284689 327.810257 
L 375.787679 340.982575 
L 378.29067 342.98271 
L 380.79366 340.019244 
L 383.296651 352.391508 
L 385.799641 319.144366 
L 388.302632 334.835221 
L 390.805622 345.211432 
L 393.308612 250.800978 
L 395.811603 351.309802 
L 398.314593 314.642022 
L 400.817584 264.161064 
L 403.320574 183.80462 
L 405.823565 289.595433 
L 408.326555 343.599078 
L 410.829545 339.043668 
L 413.332536 324.556976 
L 415.835526 299.302211 
L 418.338517 342.313277 
L 420.841507 346.85644 
L 423.344498 313.613381 
L 425.847488 273.773957 
L 428.350478 291.742517 
L 430.853469 283.562373 
L 433.356459 273.01064 
L 435.85945 309.425343 
L 438.36244 325.087624 
L 440.865431 234.48151 
L 443.368421 318.225937 
L 445.871411 276.443525 
L 448.374402 347.799361 
L 450.877392 363.131008 
L 453.380383 340.602957 
L 455.883373 328.296004 
L 458.386364 284.32569 
L 460.889354 326.385671 
L 463.392344 337.427233 
L 465.895335 317.572832 
L 468.398325 299.285883 
L 470.901316 336.73739 
L 473.404306 294.575361 
L 475.907297 341.623434 
L 478.410287 350.799564 
L 480.913278 219.084552 
L 483.416268 231.991546 
L 485.919258 214.778139 
L 488.422249 353.097678 
L 490.925239 329.985914 
L 493.42823 333.341243 
L 495.93122 335.374033 
L 498.434211 320.654672 
L 500.937201 283.848107 
L 503.440191 304.24132 
L 505.943182 321.062863 
L 508.446172 268.512378 
L 510.949163 322.08334 
L 513.452153 315.915577 
L 515.955144 282.350046 
L 518.458134 293.938583 
L 520.961124 316.707467 
L 523.464115 350.583223 
L 525.967105 328.891963 
L 528.470096 349.317831 
L 530.973086 303.837211 
L 533.476077 314.323633 
L 538.482057 340.827462 
L 540.985048 318.381049 
L 543.488038 316.348259 
L 545.991029 307.555829 
L 548.494019 289.542368 
L 550.99701 257.695321 
L 553.5 213.190277 
L 556.00299 161.394945 
L 558.505981 247.196653 
L 561.008971 269.953291 
L 563.511962 342.080608 
L 566.014952 213.15354 
L 568.517943 306.649645 
L 571.020933 326.001972 
L 573.523923 66.96 
L 576.026914 310.111103 
L 578.529904 302.408543 
L 581.032895 342.713304 
L 583.535885 315.756382 
L 586.038876 315.935986 
L 588.541866 217.676294 
L 591.044856 345.623704 
L 593.547847 290.428142 
L 596.050837 319.532147 
L 598.553828 253.180731 
L 601.056818 271.120717 
L 606.062799 351.505734 
L 608.565789 323.948772 
L 611.06878 358.975626 
L 613.57177 325.985644 
L 616.074761 311.335676 
L 618.577751 295.338678 
L 621.080742 353.714046 
L 623.583732 243.882144 
L 626.086722 328.73685 
L 628.589713 333.643304 
L 631.092703 168.109683 
L 633.595694 283.472571 
L 636.098684 257.617765 
L 638.601675 329.663443 
L 641.104665 339.864132 
L 643.607656 344.790995 
L 646.110646 340.888691 
L 648.613636 241.359525 
L 651.116627 334.867876 
L 653.619617 346.289055 
L 656.122608 306.114915 
L 658.625598 300.057364 
L 661.128589 273.904578 
L 663.631579 303.796392 
L 666.134569 273.455568 
L 668.63756 311.388741 
L 671.14055 339.733511 
L 673.643541 316.038034 
L 676.146531 329.202188 
L 678.649522 313.988916 
L 681.152512 311.474461 
L 683.655502 266.532652 
L 686.158493 347.321778 
L 691.164474 305.249551 
L 693.667464 334.459685 
L 696.170455 334.133133 
L 698.673445 313.507251 
L 701.176435 315.127769 
L 703.679426 340.913182 
L 706.182416 73.919653 
L 708.685407 342.901072 
L 711.188397 229.428107 
L 713.691388 278.092616 
L 716.194378 334.051495 
L 718.697368 344.688947 
L 721.200359 296.277517 
L 723.703349 289.921986 
L 726.20634 354.954946 
L 728.70933 341.300964 
L 731.212321 333.002444 
L 733.715311 285.721702 
L 736.218301 306.257782 
L 738.721292 346.023731 
L 741.224282 234.554984 
L 743.727273 305.029128 
L 746.230263 321.107764 
L 748.733254 339.492678 
L 751.236244 332.406486 
L 753.739234 330.855361 
L 756.242225 342.182656 
L 758.745215 306.094506 
L 761.248206 266.949007 
L 763.751196 325.446832 
L 766.254187 354.79167 
L 768.757177 166.276907 
L 771.260167 313.18478 
L 773.763158 317.458538 
L 776.266148 342.162246 
L 778.769139 289.893413 
L 781.272129 326.312197 
L 783.77512 242.743292 
L 786.27811 320.39343 
L 788.7811 283.786878 
L 791.284091 294.628426 
L 793.787081 308.976333 
L 796.290072 342.292867 
L 798.793062 342.696976 
L 801.296053 308.123214 
L 803.799043 356.767313 
L 806.302033 254.005276 
L 808.805024 333.145311 
L 811.308014 292.469097 
L 813.811005 298.996068 
L 816.313995 349.317831 
L 818.816986 325.071297 
L 821.319976 325.37744 
L 823.822967 312.160221 
L 826.325957 265.789745 
L 828.828947 335.063808 
L 831.331938 363.294285 
L 833.834928 148.487951 
L 836.337919 311.033615 
L 838.840909 334.484177 
L 841.3439 322.487449 
L 843.84689 269.904308 
L 846.34988 309.874353 
L 848.852871 298.783808 
L 851.355861 314.756315 
L 853.858852 307.278259 
L 856.361842 169.79143 
L 858.864833 209.981897 
L 861.367823 276.892535 
L 863.870813 240.788058 
L 866.373804 247.743629 
L 868.876794 304.935244 
L 871.379785 266.075479 
L 873.882775 362.032975 
L 876.385766 240.530898 
L 881.391746 339.525333 
L 883.894737 353.963043 
L 886.397727 263.25488 
L 888.900718 258.181068 
L 891.403708 306.278192 
L 893.906699 295.122337 
L 896.409689 302.46569 
L 898.912679 292.334394 
L 901.41567 273.361685 
L 903.91866 294.244727 
L 906.421651 302.714686 
L 908.924641 351.575126 
L 911.427632 258.895402 
L 913.930622 324.071229 
L 916.433612 248.204885 
L 918.936603 274.276032 
L 921.439593 274.945465 
L 923.942584 273.190244 
L 926.445574 311.715293 
L 928.948565 323.054834 
L 931.451555 357.16734 
L 933.954545 354.873308 
L 933.954545 354.873308 
" clip-path="url(#p1ffb1c78e2)" style="fill: none; stroke: #ff0000; stroke-width: 1.5; stroke-linecap: round"/>
   </g>
   <g id="line2d_21">
    <path d="M 173.045455 281.554074 
L 175.548445 355.979505 
L 178.051435 289.191324 
L 180.554426 348.90964 
L 183.057416 334.757665 
L 185.560407 303.914767 
L 188.063397 348.064685 
L 190.566388 333.708614 
L 193.069378 299.959398 
L 195.572368 332.541189 
L 198.075359 353.118088 
L 200.578349 322.556841 
L 203.08134 281.819398 
L 205.58433 326.602012 
L 208.087321 325.520307 
L 210.590311 353.563016 
L 213.093301 365.869969 
L 215.596292 276.076154 
L 218.099282 364.094339 
L 220.602273 310.08253 
L 223.105263 321.136337 
L 225.608254 343.476621 
L 228.111244 338.87631 
L 230.614234 366.482255 
L 233.117225 355.999915 
L 235.620215 348.742282 
L 238.123206 360.726764 
L 240.626196 288.815789 
L 243.129187 265.953021 
L 245.632177 335.553637 
L 248.135167 355.530495 
L 250.638158 332.177899 
L 253.141148 354.154892 
L 255.644139 196.927955 
L 258.147129 317.262607 
L 260.65012 347.983047 
L 265.6561 356.024406 
L 268.159091 361.281904 
L 270.662081 359.461373 
L 273.165072 349.975018 
L 275.668062 348.685135 
L 278.171053 342.003052 
L 280.674043 369.36 
L 283.177033 368.131346 
L 285.680024 357.8082 
L 288.183014 324.614123 
L 290.686005 344.170545 
L 293.188995 333.275932 
L 295.691986 326.806108 
L 298.194976 329.406283 
L 300.697967 321.417989 
L 303.200957 342.713304 
L 305.703947 326.691814 
L 308.206938 366.23734 
L 313.212919 367.339455 
L 315.715909 366.625122 
L 318.2189 355.718263 
L 320.72189 366.845545 
L 323.22488 350.889366 
L 325.727871 261.773147 
L 328.230861 352.534375 
L 330.733852 239.820645 
L 333.236842 344.125644 
L 335.739833 365.192372 
L 338.242823 365.416877 
L 343.248804 355.501922 
L 345.751794 226.807522 
L 348.254785 342.917399 
L 350.757775 354.971274 
L 353.260766 357.791872 
L 355.763756 321.97721 
L 358.266746 320.021976 
L 363.272727 368.772205 
L 365.775718 363.722885 
L 368.278708 348.268781 
L 370.781699 246.792545 
L 373.284689 364.841328 
L 375.787679 364.608659 
L 378.29067 364.069847 
L 380.79366 347.317696 
L 383.296651 368.18441 
L 388.302632 364.784181 
L 390.805622 351.815959 
L 393.308612 273.386176 
L 395.811603 354.824325 
L 398.314593 332.067687 
L 400.817584 324.495748 
L 403.320574 219.545808 
L 405.823565 303.073894 
L 408.326555 343.599078 
L 410.829545 364.20455 
L 413.332536 344.092989 
L 415.835526 346.146188 
L 418.338517 359.13482 
L 420.841507 351.893515 
L 423.344498 333.402471 
L 425.847488 357.326535 
L 428.350478 359.163393 
L 430.853469 323.920199 
L 433.356459 340.064145 
L 438.36244 349.762759 
L 440.865431 335.912845 
L 443.368421 326.18974 
L 445.871411 312.613313 
L 448.374402 363.580018 
L 450.877392 367.449667 
L 453.380383 348.154487 
L 455.883373 339.745757 
L 458.386364 341.676499 
L 460.889354 338.015027 
L 465.895335 355.791737 
L 468.398325 326.736715 
L 470.901316 363.298366 
L 473.404306 329.194024 
L 475.907297 354.077336 
L 478.410287 362.17176 
L 480.913278 352.334361 
L 483.416268 335.051562 
L 485.919258 312.450037 
L 488.422249 369.249788 
L 490.925239 332.545271 
L 493.42823 353.395657 
L 495.93122 351.787386 
L 498.434211 356.155027 
L 500.937201 353.746701 
L 503.440191 355.832556 
L 508.446172 308.249753 
L 510.949163 345.427773 
L 513.452153 354.007944 
L 515.955144 357.477565 
L 518.458134 342.101018 
L 520.961124 357.734726 
L 525.967105 361.057399 
L 530.973086 336.488394 
L 533.476077 356.742822 
L 535.979067 348.129996 
L 540.985048 332.198308 
L 543.488038 343.30518 
L 545.991029 355.963178 
L 548.494019 307.923201 
L 550.99701 350.848547 
L 553.5 298.857283 
L 556.00299 261.801721 
L 558.505981 341.18667 
L 561.008971 340.443763 
L 563.511962 367.486404 
L 566.014952 289.207652 
L 568.517943 335.174019 
L 571.020933 361.771733 
L 573.523923 126.792609 
L 576.026914 315.470649 
L 581.032895 355.122304 
L 583.535885 352.722142 
L 586.038876 366.645531 
L 588.541866 345.737998 
L 596.050837 325.344785 
L 598.553828 349.995428 
L 601.056818 358.804186 
L 603.559809 317.021774 
L 616.074761 357.285716 
L 618.577751 344.864469 
L 623.583732 274.161739 
L 628.589713 356.706085 
L 631.092703 279.055946 
L 633.595694 367.07005 
L 636.098684 335.569964 
L 638.601675 354.424298 
L 641.104665 360.261427 
L 643.607656 362.094204 
L 648.613636 319.083138 
L 653.619617 363.988209 
L 661.128589 311.217301 
L 663.631579 337.447642 
L 666.134569 306.498615 
L 668.63756 361.604375 
L 671.14055 364.286188 
L 681.152512 363.06978 
L 683.655502 347.746296 
L 688.661483 356.987736 
L 691.164474 360.816566 
L 703.679426 354.828407 
L 706.182416 344.431787 
L 708.685407 342.901072 
L 711.188397 351.820041 
L 713.691388 350.264834 
L 731.212321 357.775545 
L 733.715311 350.913857 
L 736.218301 353.265036 
L 738.721292 357.10203 
L 741.224282 241.420753 
L 743.727273 348.191224 
L 753.739234 339.488596 
L 756.242225 357.183668 
L 761.248206 347.178911 
L 763.751196 344.73793 
L 771.260167 335.398524 
L 783.77512 352.036382 
L 791.284091 363.143254 
L 793.787081 354.632475 
L 796.290072 363.045288 
L 798.793062 363.575936 
L 806.302033 352.036382 
L 808.805024 356.795887 
L 811.308014 337.190482 
L 813.811005 362.649343 
L 816.313995 358.261292 
L 826.325957 344.999172 
L 828.828947 359.832826 
L 836.337919 358.461305 
L 841.3439 363.282039 
L 843.84689 334.651535 
L 856.361842 347.440153 
L 858.864833 297.885789 
L 861.367823 360.518587 
L 863.870813 331.871756 
L 866.373804 326.030545 
L 868.876794 363.02896 
L 893.906699 345.166531 
L 903.91866 356.559136 
L 911.427632 358.96338 
L 913.930622 358.440896 
L 916.433612 354.628394 
L 918.936603 354.816161 
L 918.936603 354.816161 
" clip-path="url(#p1ffb1c78e2)" style="fill: none; stroke: #0000ff; stroke-width: 1.5; stroke-linecap: round"/>
   </g>
   <g id="patch_3">
    <path d="M 135 384.48 
L 135 51.84 
" style="fill: none; stroke: #cccccc; stroke-width: 0.8; stroke-linejoin: miter; stroke-linecap: square"/>
   </g>
   <g id="patch_4">
    <path d="M 972 384.48 
L 972 51.84 
" style="fill: none; stroke: #cccccc; stroke-width: 0.8; stroke-linejoin: miter; stroke-linecap: square"/>
   </g>
   <g id="patch_5">
    <path d="M 135 384.48 
L 972 384.48 
" style="fill: none; stroke: #cccccc; stroke-width: 0.8; stroke-linejoin: miter; stroke-linecap: square"/>
   </g>
   <g id="patch_6">
    <path d="M 135 51.84 
L 972 51.84 
" style="fill: none; stroke: #cccccc; stroke-width: 0.8; stroke-linejoin: miter; stroke-linecap: square"/>
   </g>
   <g id="text_22">
    <!-- Fraudulent Transaction Volume (£) vs Investigated Fraud Amount (£) Per Day -->
    <g style="fill: #262626" transform="translate(279.605 45.84) scale(0.16 -0.16)">
     <defs>
      <path id="ArialMT-46" d="M 525 0 
L 525 4581 
L 3616 4581 
L 3616 4041 
L 1131 4041 
L 1131 2622 
L 3281 2622 
L 3281 2081 
L 1131 2081 
L 1131 0 
L 525 0 
z
" transform="scale(0.015625)"/>
      <path id="ArialMT-72" d="M 416 0 
L 416 3319 
L 922 3319 
L 922 2816 
Q 1116 3169 1280 3281 
Q 1444 3394 1641 3394 
Q 1925 3394 2219 3213 
L 2025 2691 
Q 1819 2813 1613 2813 
Q 1428 2813 1281 2702 
Q 1134 2591 1072 2394 
Q 978 2094 978 1738 
L 978 0 
L 416 0 
z
" transform="scale(0.015625)"/>
      <path id="ArialMT-64" d="M 2575 0 
L 2575 419 
Q 2259 -75 1647 -75 
Q 1250 -75 917 144 
Q 584 363 401 755 
Q 219 1147 219 1656 
Q 219 2153 384 2558 
Q 550 2963 881 3178 
Q 1213 3394 1622 3394 
Q 1922 3394 2156 3267 
Q 2391 3141 2538 2938 
L 2538 4581 
L 3097 4581 
L 3097 0 
L 2575 0 
z
M 797 1656 
Q 797 1019 1065 703 
Q 1334 388 1700 388 
Q 2069 388 2326 689 
Q 2584 991 2584 1609 
Q 2584 2291 2321 2609 
Q 2059 2928 1675 2928 
Q 1300 2928 1048 2622 
Q 797 2316 797 1656 
z
" transform="scale(0.015625)"/>
      <path id="ArialMT-6c" d="M 409 0 
L 409 4581 
L 972 4581 
L 972 0 
L 409 0 
z
" transform="scale(0.015625)"/>
      <path id="ArialMT-20" transform="scale(0.015625)"/>
      <path id="ArialMT-54" d="M 1659 0 
L 1659 4041 
L 150 4041 
L 150 4581 
L 3781 4581 
L 3781 4041 
L 2266 4041 
L 2266 0 
L 1659 0 
z
" transform="scale(0.015625)"/>
      <path id="ArialMT-73" d="M 197 991 
L 753 1078 
Q 800 744 1014 566 
Q 1228 388 1613 388 
Q 2000 388 2187 545 
Q 2375 703 2375 916 
Q 2375 1106 2209 1216 
Q 2094 1291 1634 1406 
Q 1016 1563 777 1677 
Q 538 1791 414 1992 
Q 291 2194 291 2438 
Q 291 2659 392 2848 
Q 494 3038 669 3163 
Q 800 3259 1026 3326 
Q 1253 3394 1513 3394 
Q 1903 3394 2198 3281 
Q 2494 3169 2634 2976 
Q 2775 2784 2828 2463 
L 2278 2388 
Q 2241 2644 2061 2787 
Q 1881 2931 1553 2931 
Q 1166 2931 1000 2803 
Q 834 2675 834 2503 
Q 834 2394 903 2306 
Q 972 2216 1119 2156 
Q 1203 2125 1616 2013 
Q 2213 1853 2448 1751 
Q 2684 1650 2818 1456 
Q 2953 1263 2953 975 
Q 2953 694 2789 445 
Q 2625 197 2315 61 
Q 2006 -75 1616 -75 
Q 969 -75 630 194 
Q 291 463 197 991 
z
" transform="scale(0.015625)"/>
      <path id="ArialMT-63" d="M 2588 1216 
L 3141 1144 
Q 3050 572 2676 248 
Q 2303 -75 1759 -75 
Q 1078 -75 664 370 
Q 250 816 250 1647 
Q 250 2184 428 2587 
Q 606 2991 970 3192 
Q 1334 3394 1763 3394 
Q 2303 3394 2647 3120 
Q 2991 2847 3088 2344 
L 2541 2259 
Q 2463 2594 2264 2762 
Q 2066 2931 1784 2931 
Q 1359 2931 1093 2626 
Q 828 2322 828 1663 
Q 828 994 1084 691 
Q 1341 388 1753 388 
Q 2084 388 2306 591 
Q 2528 794 2588 1216 
z
" transform="scale(0.015625)"/>
      <path id="ArialMT-69" d="M 425 3934 
L 425 4581 
L 988 4581 
L 988 3934 
L 425 3934 
z
M 425 0 
L 425 3319 
L 988 3319 
L 988 0 
L 425 0 
z
" transform="scale(0.015625)"/>
      <path id="ArialMT-56" d="M 1803 0 
L 28 4581 
L 684 4581 
L 1875 1253 
Q 2019 853 2116 503 
Q 2222 878 2363 1253 
L 3600 4581 
L 4219 4581 
L 2425 0 
L 1803 0 
z
" transform="scale(0.015625)"/>
      <path id="ArialMT-28" d="M 1497 -1347 
Q 1031 -759 709 28 
Q 388 816 388 1659 
Q 388 2403 628 3084 
Q 909 3875 1497 4659 
L 1900 4659 
Q 1522 4009 1400 3731 
Q 1209 3300 1100 2831 
Q 966 2247 966 1656 
Q 966 153 1900 -1347 
L 1497 -1347 
z
" transform="scale(0.015625)"/>
      <path id="ArialMT-a3" d="M 1238 2528 
L 2222 2528 
L 2222 2066 
L 1334 2066 
Q 1394 1928 1394 1791 
Q 1394 1519 1264 1216 
Q 1134 913 838 597 
Q 1084 666 1288 666 
Q 1547 666 1872 588 
Q 2409 459 2600 459 
Q 2831 459 3200 634 
L 3381 119 
Q 3094 -3 2936 -40 
Q 2778 -78 2622 -78 
Q 2491 -78 2356 -53 
Q 2272 -38 1951 60 
Q 1631 159 1538 178 
Q 1391 203 1244 203 
Q 1019 203 764 125 
Q 509 47 300 -88 
L 84 453 
Q 384 619 593 926 
Q 803 1234 803 1678 
Q 803 1869 750 2066 
L 138 2066 
L 138 2528 
L 619 2528 
Q 516 2878 487 3039 
Q 459 3200 459 3353 
Q 459 4003 941 4369 
Q 1328 4659 1878 4659 
Q 2444 4659 2811 4348 
Q 3178 4038 3263 3475 
L 2703 3391 
Q 2656 3766 2423 3981 
Q 2191 4197 1866 4197 
Q 1519 4197 1289 3973 
Q 1059 3750 1059 3434 
Q 1059 3088 1238 2528 
z
" transform="scale(0.015625)"/>
      <path id="ArialMT-29" d="M 791 -1347 
L 388 -1347 
Q 1322 153 1322 1656 
Q 1322 2244 1188 2822 
Q 1081 3291 891 3722 
Q 769 4003 388 4659 
L 791 4659 
Q 1378 3875 1659 3084 
Q 1900 2403 1900 1659 
Q 1900 816 1576 28 
Q 1253 -759 791 -1347 
z
" transform="scale(0.015625)"/>
      <path id="ArialMT-76" d="M 1344 0 
L 81 3319 
L 675 3319 
L 1388 1331 
Q 1503 1009 1600 663 
Q 1675 925 1809 1294 
L 2547 3319 
L 3125 3319 
L 1869 0 
L 1344 0 
z
" transform="scale(0.015625)"/>
      <path id="ArialMT-49" d="M 597 0 
L 597 4581 
L 1203 4581 
L 1203 0 
L 597 0 
z
" transform="scale(0.015625)"/>
      <path id="ArialMT-67" d="M 319 -275 
L 866 -356 
Q 900 -609 1056 -725 
Q 1266 -881 1628 -881 
Q 2019 -881 2231 -725 
Q 2444 -569 2519 -288 
Q 2563 -116 2559 434 
Q 2191 0 1641 0 
Q 956 0 581 494 
Q 206 988 206 1678 
Q 206 2153 378 2554 
Q 550 2956 876 3175 
Q 1203 3394 1644 3394 
Q 2231 3394 2613 2919 
L 2613 3319 
L 3131 3319 
L 3131 450 
Q 3131 -325 2973 -648 
Q 2816 -972 2473 -1159 
Q 2131 -1347 1631 -1347 
Q 1038 -1347 672 -1080 
Q 306 -813 319 -275 
z
M 784 1719 
Q 784 1066 1043 766 
Q 1303 466 1694 466 
Q 2081 466 2343 764 
Q 2606 1063 2606 1700 
Q 2606 2309 2336 2618 
Q 2066 2928 1684 2928 
Q 1309 2928 1046 2623 
Q 784 2319 784 1719 
z
" transform="scale(0.015625)"/>
      <path id="ArialMT-50" d="M 494 0 
L 494 4581 
L 2222 4581 
Q 2678 4581 2919 4538 
Q 3256 4481 3484 4323 
Q 3713 4166 3852 3881 
Q 3991 3597 3991 3256 
Q 3991 2672 3619 2267 
Q 3247 1863 2275 1863 
L 1100 1863 
L 1100 0 
L 494 0 
z
M 1100 2403 
L 2284 2403 
Q 2872 2403 3119 2622 
Q 3366 2841 3366 3238 
Q 3366 3525 3220 3729 
Q 3075 3934 2838 4000 
Q 2684 4041 2272 4041 
L 1100 4041 
L 1100 2403 
z
" transform="scale(0.015625)"/>
      <path id="ArialMT-79" d="M 397 -1278 
L 334 -750 
Q 519 -800 656 -800 
Q 844 -800 956 -737 
Q 1069 -675 1141 -563 
Q 1194 -478 1313 -144 
Q 1328 -97 1363 -6 
L 103 3319 
L 709 3319 
L 1400 1397 
Q 1534 1031 1641 628 
Q 1738 1016 1872 1384 
L 2581 3319 
L 3144 3319 
L 1881 -56 
Q 1678 -603 1566 -809 
Q 1416 -1088 1222 -1217 
Q 1028 -1347 759 -1347 
Q 597 -1347 397 -1278 
z
" transform="scale(0.015625)"/>
     </defs>
     <use xlink:href="#ArialMT-46"/>
     <use xlink:href="#ArialMT-72" x="61.083984"/>
     <use xlink:href="#ArialMT-61" x="94.384766"/>
     <use xlink:href="#ArialMT-75" x="150"/>
     <use xlink:href="#ArialMT-64" x="205.615234"/>
     <use xlink:href="#ArialMT-75" x="261.230469"/>
     <use xlink:href="#ArialMT-6c" x="316.845703"/>
     <use xlink:href="#ArialMT-65" x="339.0625"/>
     <use xlink:href="#ArialMT-6e" x="394.677734"/>
     <use xlink:href="#ArialMT-74" x="450.292969"/>
     <use xlink:href="#ArialMT-20" x="478.076172"/>
     <use xlink:href="#ArialMT-54" x="504.109375"/>
     <use xlink:href="#ArialMT-72" x="561.443359"/>
     <use xlink:href="#ArialMT-61" x="594.744141"/>
     <use xlink:href="#ArialMT-6e" x="650.359375"/>
     <use xlink:href="#ArialMT-73" x="705.974609"/>
     <use xlink:href="#ArialMT-61" x="755.974609"/>
     <use xlink:href="#ArialMT-63" x="811.589844"/>
     <use xlink:href="#ArialMT-74" x="861.589844"/>
     <use xlink:href="#ArialMT-69" x="889.373047"/>
     <use xlink:href="#ArialMT-6f" x="911.589844"/>
     <use xlink:href="#ArialMT-6e" x="967.205078"/>
     <use xlink:href="#ArialMT-20" x="1022.820312"/>
     <use xlink:href="#ArialMT-56" x="1050.603516"/>
     <use xlink:href="#ArialMT-6f" x="1111.802734"/>
     <use xlink:href="#ArialMT-6c" x="1167.417969"/>
     <use xlink:href="#ArialMT-75" x="1189.634766"/>
     <use xlink:href="#ArialMT-6d" x="1245.25"/>
     <use xlink:href="#ArialMT-65" x="1328.550781"/>
     <use xlink:href="#ArialMT-20" x="1384.166016"/>
     <use xlink:href="#ArialMT-28" x="1411.949219"/>
     <use xlink:href="#ArialMT-a3" x="1445.25"/>
     <use xlink:href="#ArialMT-29" x="1500.865234"/>
     <use xlink:href="#ArialMT-20" x="1534.166016"/>
     <use xlink:href="#ArialMT-76" x="1561.949219"/>
     <use xlink:href="#ArialMT-73" x="1611.949219"/>
     <use xlink:href="#ArialMT-20" x="1661.949219"/>
     <use xlink:href="#ArialMT-49" x="1689.732422"/>
     <use xlink:href="#ArialMT-6e" x="1717.515625"/>
     <use xlink:href="#ArialMT-76" x="1773.130859"/>
     <use xlink:href="#ArialMT-65" x="1823.130859"/>
     <use xlink:href="#ArialMT-73" x="1878.746094"/>
     <use xlink:href="#ArialMT-74" x="1928.746094"/>
     <use xlink:href="#ArialMT-69" x="1956.529297"/>
     <use xlink:href="#ArialMT-67" x="1978.746094"/>
     <use xlink:href="#ArialMT-61" x="2034.361328"/>
     <use xlink:href="#ArialMT-74" x="2089.976562"/>
     <use xlink:href="#ArialMT-65" x="2117.759766"/>
     <use xlink:href="#ArialMT-64" x="2173.375"/>
     <use xlink:href="#ArialMT-20" x="2228.990234"/>
     <use xlink:href="#ArialMT-46" x="2256.773438"/>
     <use xlink:href="#ArialMT-72" x="2317.857422"/>
     <use xlink:href="#ArialMT-61" x="2351.158203"/>
     <use xlink:href="#ArialMT-75" x="2406.773438"/>
     <use xlink:href="#ArialMT-64" x="2462.388672"/>
     <use xlink:href="#ArialMT-20" x="2518.003906"/>
     <use xlink:href="#ArialMT-41" x="2540.287109"/>
     <use xlink:href="#ArialMT-6d" x="2606.986328"/>
     <use xlink:href="#ArialMT-6f" x="2690.287109"/>
     <use xlink:href="#ArialMT-75" x="2745.902344"/>
     <use xlink:href="#ArialMT-6e" x="2801.517578"/>
     <use xlink:href="#ArialMT-74" x="2857.132812"/>
     <use xlink:href="#ArialMT-20" x="2884.916016"/>
     <use xlink:href="#ArialMT-28" x="2912.699219"/>
     <use xlink:href="#ArialMT-a3" x="2946"/>
     <use xlink:href="#ArialMT-29" x="3001.615234"/>
     <use xlink:href="#ArialMT-20" x="3034.916016"/>
     <use xlink:href="#ArialMT-50" x="3062.699219"/>
     <use xlink:href="#ArialMT-65" x="3129.398438"/>
     <use xlink:href="#ArialMT-72" x="3185.013672"/>
     <use xlink:href="#ArialMT-20" x="3218.314453"/>
     <use xlink:href="#ArialMT-44" x="3246.097656"/>
     <use xlink:href="#ArialMT-61" x="3318.314453"/>
     <use xlink:href="#ArialMT-79" x="3373.929688"/>
    </g>
   </g>
   <g id="legend_1">
    <g id="patch_7">
     <path d="M 813.490625 88.247812 
L 965 88.247812 
Q 967 88.247812 967 86.247812 
L 967 58.84 
Q 967 56.84 965 56.84 
L 813.490625 56.84 
Q 811.490625 56.84 811.490625 58.84 
L 811.490625 86.247812 
Q 811.490625 88.247812 813.490625 88.247812 
z
" style="fill: #ffffff; opacity: 0.8; stroke: #cccccc; stroke-linejoin: miter"/>
    </g>
    <g id="line2d_22">
     <path d="M 815.490625 64.497812 
L 825.490625 64.497812 
L 835.490625 64.497812 
" style="fill: none; stroke: #ff0000; stroke-width: 1.5; stroke-linecap: round"/>
    </g>
    <g id="text_23">
     <!-- Total Fraud Amount -->
     <g style="fill: #262626" transform="translate(843.490625 67.997812) scale(0.1 -0.1)">
      <use xlink:href="#ArialMT-54"/>
      <use xlink:href="#ArialMT-6f" x="49.958984"/>
      <use xlink:href="#ArialMT-74" x="105.574219"/>
      <use xlink:href="#ArialMT-61" x="133.357422"/>
      <use xlink:href="#ArialMT-6c" x="188.972656"/>
      <use xlink:href="#ArialMT-20" x="211.189453"/>
      <use xlink:href="#ArialMT-46" x="238.972656"/>
      <use xlink:href="#ArialMT-72" x="300.056641"/>
      <use xlink:href="#ArialMT-61" x="333.357422"/>
      <use xlink:href="#ArialMT-75" x="388.972656"/>
      <use xlink:href="#ArialMT-64" x="444.587891"/>
      <use xlink:href="#ArialMT-20" x="500.203125"/>
      <use xlink:href="#ArialMT-41" x="522.486328"/>
      <use xlink:href="#ArialMT-6d" x="589.185547"/>
      <use xlink:href="#ArialMT-6f" x="672.486328"/>
      <use xlink:href="#ArialMT-75" x="728.101562"/>
      <use xlink:href="#ArialMT-6e" x="783.716797"/>
      <use xlink:href="#ArialMT-74" x="839.332031"/>
     </g>
    </g>
    <g id="line2d_23">
     <path d="M 815.490625 78.643125 
L 825.490625 78.643125 
L 835.490625 78.643125 
" style="fill: none; stroke: #0000ff; stroke-width: 1.5; stroke-linecap: round"/>
    </g>
    <g id="text_24">
     <!-- Investigated Fraud Amount -->
     <g style="fill: #262626" transform="translate(843.490625 82.143125) scale(0.1 -0.1)">
      <use xlink:href="#ArialMT-49"/>
      <use xlink:href="#ArialMT-6e" x="27.783203"/>
      <use xlink:href="#ArialMT-76" x="83.398438"/>
      <use xlink:href="#ArialMT-65" x="133.398438"/>
      <use xlink:href="#ArialMT-73" x="189.013672"/>
      <use xlink:href="#ArialMT-74" x="239.013672"/>
      <use xlink:href="#ArialMT-69" x="266.796875"/>
      <use xlink:href="#ArialMT-67" x="289.013672"/>
      <use xlink:href="#ArialMT-61" x="344.628906"/>
      <use xlink:href="#ArialMT-74" x="400.244141"/>
      <use xlink:href="#ArialMT-65" x="428.027344"/>
      <use xlink:href="#ArialMT-64" x="483.642578"/>
      <use xlink:href="#ArialMT-20" x="539.257812"/>
      <use xlink:href="#ArialMT-46" x="567.041016"/>
      <use xlink:href="#ArialMT-72" x="628.125"/>
      <use xlink:href="#ArialMT-61" x="661.425781"/>
      <use xlink:href="#ArialMT-75" x="717.041016"/>
      <use xlink:href="#ArialMT-64" x="772.65625"/>
      <use xlink:href="#ArialMT-20" x="828.271484"/>
      <use xlink:href="#ArialMT-41" x="850.554688"/>
      <use xlink:href="#ArialMT-6d" x="917.253906"/>
      <use xlink:href="#ArialMT-6f" x="1000.554688"/>
      <use xlink:href="#ArialMT-75" x="1056.169922"/>
      <use xlink:href="#ArialMT-6e" x="1111.785156"/>
      <use xlink:href="#ArialMT-74" x="1167.400391"/>
     </g>
    </g>
   </g>
  </g>
 </g>
 <defs>
  <clipPath id="p1ffb1c78e2">
   <rect x="135" y="51.84" width="837" height="332.64"/>
  </clipPath>
 </defs>
</svg>
